<?xml version="1.0" encoding="UTF-8"?><svg id="a" xmlns="http://www.w3.org/2000/svg" viewBox="0 0 913.97 320.39"><defs><style>.b{fill:#ffffff;}</style></defs><path class="b" d="M232.84,186.33l-8.1-8.11,8.1-8.1c6.41-6.41,6.41-16.85,0-23.26l-28.47-28.47v-13.44c0-4.61-3.38-8.54-7.86-9.13-2.59-.34-5.2,.45-7.16,2.17-.99,.87-1.77,1.93-2.29,3.1l-17.24-17.17c-6.23-6.21-16.32-6.2-22.55,.01l-63.04,62.94c-6.41,6.41-6.41,16.85,0,23.26l8.12,8.12-8.12,8.1c-6.42,6.42-6.42,16.84,0,23.26l22.95,22.95c2.92,2.92,6.76,4.81,10.88,5.05,4.77,.29,9.3-1.44,12.65-4.79l22.81-22.75c2.81-2.8,7.36-2.8,10.16,.01l22.7,22.74c3.35,3.35,7.88,5.07,12.65,4.79,4.12-.25,7.96-2.14,10.88-5.05l22.95-22.95c6.41-6.41,6.41-16.85,0-23.26Zm-141.6-23.23c-2.55-2.55-2.55-6.69,0-9.24l62.21-62.22c2.81-2.81,7.35-2.81,10.16,0l62.21,62.22c2.55,2.55,2.55,6.69,0,9.24l-8.1,8.1-47.8-47.85c-6.23-6.23-16.33-6.24-22.57-.02l-47.99,47.9-8.12-8.12Zm119.48,15.1l-7.94,7.94c-1.17,1.17-2.71,1.96-4.36,2.06-1.9,.12-3.71-.57-5.04-1.9l-23.56-23.53c-6.23-6.22-16.33-6.22-22.56,0l-23.56,23.53c-1.23,1.23-2.87,1.91-4.62,1.91s-3.39-.68-4.62-1.91l-8.09-8.09,47.17-47.14c2.81-2.81,7.36-2.8,10.16,0l47.02,47.12Zm15.1,24.37l-23.05,23.05c-1.17,1.17-2.71,1.96-4.36,2.06-1.9,.12-3.71-.57-5.04-1.9l-23.57-23.52c-6.23-6.22-16.32-6.22-22.55,0l-23.57,23.52c-1.33,1.33-3.14,2.02-5.04,1.9-1.65-.1-3.19-.89-4.36-2.06l-23.05-23.05c-2.55-2.55-2.55-6.69,0-9.24l8.11-8.11,7.83,7.83c2.92,2.92,6.76,4.81,10.88,5.05,4.77,.29,9.3-1.44,12.65-4.79l22.8-22.77c2.81-2.8,7.36-2.8,10.16,.01l22.7,22.76c3.35,3.35,7.88,5.07,12.65,4.79,4.12-.25,7.96-2.14,10.88-5.05l7.84-7.84,8.1,8.12c2.55,2.55,2.55,6.69,0,9.24Z"/><g><g><path class="b" d="M667.43,119.45c-.44,0-.81-.36-.81-.8v-9.55c0-.44,.36-.81,.81-.81h27.89c1.91,0,3.15,1.56,3.21,3.09,0,0,.06,1.59,.01,3.23-.53,18.91-12.13,32.15-30.78,32.15s-32.69-15.15-32.69-34.09,14.05-34.48,32.99-34.48c14.86,0,22.7,9.35,23.14,9.73,.32,.3,.34,.81,.03,1.14l-7.08,7.51c-.31,.32-.81,.34-1.14,.03-.39-.4-5.77-6.69-14.95-6.69-12.35,0-20.86,10.41-20.86,22.76s8.58,22.46,20.66,22.46c9.63,0,16.5-5.11,18.17-13.49,.05-.27,.08-.45,.08-.59,0-.89-.72-1.61-1.61-1.61h-17.07Z"/><path class="b" d="M721.6,146.27c-9.02,0-15.8-6.61-15.8-18.42v-27.59c0-.44,.36-.8,.8-.8h10.3c.44,0,.8,.36,.8,.8v24.71c0,7.21,3.2,10.68,9.08,10.68s9.48-3.73,9.48-10.68v-24.71c0-.44,.36-.8,.8-.8h10.3c.44,0,.8,.36,.8,.8v44.45c0,.44-.36,.8-.8,.8h-9.45c-.44,0-.8-.35-.8-.8v-8.2c0-.44-.36-.8-.8-.8s-.71,.28-.83,.7c-1.11,3.83-4.6,9.86-13.87,9.86Z"/><path class="b" d="M377.67,98.29c-13.36,0-24.19,10.83-24.19,24.19s10.83,24.19,24.19,24.19,24.19-10.83,24.19-24.19-10.83-24.19-24.19-24.19Zm0,37.1c-6.96,0-12.6-5.78-12.6-12.91s5.64-12.91,12.6-12.91,12.6,5.78,12.6,12.91-5.64,12.91-12.6,12.91Z"/><path class="b" d="M344,109.74c-2.9,0-5.8,1.43-7.45,4.8-1.15,2.35-1.53,5.64-1.53,10.04l.02,20.12c0,.44-.36,.8-.8,.8h-10.3c-.44,0-.8-.36-.8-.8v-44.45c0-.44,.36-.8,.8-.8h9.45c.44,0,.8,.36,.8,.8v8.2c0,.44,.36,.8,.8,.8s.71-.31,.83-.74c.81-2.79,2.08-6.18,4.7-8.35,1.43-1.18,3.24-1.71,5.03-1.71,1.51,0,3.14,.37,4.8,1.43,.22,.14,.35,.39,.35,.67v10.07c0,.44-.36,.8-.8,.8-.17,0-.32-.06-.45-.14-1.39-.78-3.16-1.55-5.46-1.55Z"/><path class="b" d="M540.1,109.74c-2.9,0-5.8,1.43-7.45,4.8-1.15,2.35-1.53,5.64-1.53,10.04l.02,20.12c0,.44-.36,.8-.8,.8h-10.3c-.44,0-.8-.36-.8-.8v-44.45c0-.44,.36-.8,.8-.8h9.45c.44,0,.8,.36,.8,.8v8.2c0,.44,.36,.8,.8,.8s.71-.31,.83-.74c.81-2.79,2.08-6.18,4.7-8.35,1.43-1.18,3.24-1.71,5.03-1.71,1.51,0,3.14,.37,4.8,1.43,.22,.14,.35,.39,.35,.67v10.07c0,.44-.36,.8-.8,.8-.17,0-.32-.06-.45-.14-1.39-.78-3.16-1.55-5.46-1.55Z"/><path class="b" d="M779.29,109.74c-2.9,0-5.8,1.43-7.45,4.8-1.15,2.35-1.53,5.64-1.53,10.04l.02,20.12c0,.44-.36,.8-.8,.8h-10.3c-.44,0-.8-.36-.8-.8v-44.45c0-.44,.36-.8,.8-.8h9.45c.44,0,.8,.36,.8,.8v8.2c0,.44,.36,.8,.8,.8s.71-.31,.83-.74c.81-2.79,2.08-6.18,4.7-8.35,1.43-1.18,3.24-1.71,5.03-1.71,1.51,0,3.14,.37,4.8,1.43,.22,.14,.35,.39,.35,.67v10.07c0,.44-.36,.8-.8,.8-.17,0-.32-.06-.45-.14-1.39-.78-3.16-1.55-5.46-1.55Z"/><path class="b" d="M808.18,146.27c-9.02,0-15.8-6.61-15.8-18.42v-27.59c0-.44,.36-.8,.8-.8h10.3c.44,0,.8,.36,.8,.8v24.71c0,7.21,3.2,10.68,9.08,10.68s9.48-3.73,9.48-10.68v-24.71c0-.44,.36-.8,.8-.8h10.3c.44,0,.8,.36,.8,.8v44.45c0,.44-.36,.8-.8,.8h-9.45c-.44,0-.8-.35-.8-.8v-8.2c0-.44-.36-.8-.8-.8s-.71,.28-.83,.7c-1.11,3.83-4.6,9.86-13.87,9.86Z"/><path class="b" d="M628.02,99.44h-10.78c-.35,0-.64,.22-.76,.53,0,0-4.31,12.28-6.51,18.52-1.14,3.26-3.08,8.73-4.13,12.8-.08,.32-.38,.61-.79,.61-.36,0-.68-.23-.78-.6-1.1-4.07-3.12-9.55-4.32-12.85-2.74-7.5-6.75-18.49-6.75-18.49-.11-.31-.41-.52-.75-.52h-10.79c-.44,0-.8,.36-.8,.8,0,.11,.02,.21,.06,.31l17.86,44.95-6.99,17.48c-.04,.09-.06,.19-.06,.3,0,.44,.36,.8,.8,.8h10.45c.34,0,.63-.21,.75-.51l25.04-63.03c.04-.09,.06-.19,.06-.29,0-.44-.36-.8-.8-.8Z"/><path class="b" d="M292.3,79.26h-20.56c-1.78,0-3.22,1.44-3.22,3.22v62.23c0,.45,.36,.8,.81,.8h10.29c.44,0,.81-.36,.81-.8v-15.47c0-.89,.72-1.61,1.61-1.61h10.27c13.76,0,24.59-10.83,24.59-24.19s-10.83-24.19-24.59-24.19Zm-1.04,37.51h-9.23c-.89,0-1.61-.72-1.61-1.61v-23.43c0-.89,.72-1.61,1.61-1.61h9.23c7.76,0,13.73,5.96,13.73,13.32s-5.96,13.32-13.73,13.32Z"/><path class="b" d="M565.1,110.45c0-.44,.36-.8,.8-.8h9.54c.44,0,.8-.36,.8-.81v-8.59c0-.44-.36-.8-.8-.8h-10.64c-.44,0-.8-.36-.8-.8v-10.69c0-.44-.36-.8-.8-.8h-9.2c-.44,0-.8,.36-.8,.8v43.59c0,11.24,5.47,15.13,12.6,15.13,4.53,0,7.23-1.38,8.35-1.92,.35-.17,.52-.45,.52-.84l-.02-6.98c0-.55-.51-.99-1.17-.74-1.45,.54-2.67,.89-4.15,.89-2.13,0-4.23-1-4.23-4.93v-21.7Z"/><path class="b" d="M436.8,146.47c11.87,0,21.6-10.36,21.6-23.99s-9.73-23.99-21.6-23.99c-9.99,0-14.07,6.72-15.02,8.66-.19,.38-.5,.48-.75,.48-.44,0-.8-.36-.8-.8v-6.59c0-.44-.36-.8-.8-.8h-9.45c-.44,0-.8,.36-.8,.81v63.03c0,.44,.36,.8,.8,.8h10.3c.44,0,.8-.36,.8-.8v-3.09c0-15.24-.86-21.29-.86-22.1,0-.44,.36-.8,.8-.8s.67,.34,.73,.46c1.95,3.87,6.71,8.72,15.05,8.72Zm-2.91-11.07c-6.96,0-12.6-5.78-12.6-12.91s5.64-12.91,12.6-12.91,12.6,5.78,12.6,12.91-5.64,12.91-12.6,12.91Z"/><path class="b" d="M488.19,98.29c-13.36,0-23.19,10.83-23.19,24.19s10.2,24.19,24.09,24.19c7.52,0,13.26-2.62,17.1-5.7,.34-.27,.41-.75,.16-1.11l-4.27-5.9c-.26-.36-.76-.44-1.12-.18-1.9,1.23-4.67,3.42-10.96,3.42-5.31,0-10.04-3.1-12.27-7.99-.21-.47-.52-1.14-.52-1.45,0-.44,.36-.8,.8-.8,0,0,27.66,0,29.59,0,1.29,0,3.17-.88,3.28-3.15,.71-14.24-7.21-25.51-22.69-25.51Zm10.19,20.45h-20.76c-.44,0-.8-.36-.8-.8,0-.2,.19-.88,.37-1.43,1.69-5.23,5.93-8.31,11.61-8.31,4.79,0,8.37,2.39,10.23,6.05,.53,1.05,.97,2.4,.97,2.87,0,.89-.72,1.61-1.61,1.61Z"/></g><g><path class="b" d="M337.46,194.93c-13.11,0-23.74,10.63-23.74,23.74s10.63,23.74,23.74,23.74,23.74-10.63,23.74-23.74-10.63-23.74-23.74-23.74Zm0,40.71c-9.3,0-16.83-7.6-16.83-16.97s7.54-16.97,16.83-16.97,16.83,7.6,16.83,16.97-7.54,16.97-16.83,16.97Z"/><path class="b" d="M376.36,203.42c0,.41,.34,.6,.6,.6,.28,0,.47-.15,.57-.46,.89-2.76,3.29-8.47,10.38-8.47,1.48,0,3.38,.36,5.01,1.4,.21,.14,.35,.38,.35,.66v5.76c0,.44-.35,.79-.79,.79-.16,0-.31-.06-.44-.13-1.36-.77-3.13-1.62-5.85-1.62-2.98,0-6.06,1.83-7.8,5.4-1.13,2.3-1.7,5.7-1.7,9.75v23.38c0,.44-.34,.79-.77,.79h-5.2c-.44,0-.79-.35-.79-.79v-43.63c0-.44,.35-.79,.79-.79h4.86c.44,0,.79,.35,.79,.79v6.57Z"/><path class="b" d="M304.74,215.56c.44,0,.79-.35,.79-.79v-5.2c0-.44-.35-.79-.79-.79h-27.87c-.87,0-1.58-.7-1.58-1.57v-22.57c0-.87,.71-1.58,1.58-1.58h32.28c.44,0,.79-.35,.79-.79v-5.2c0-.43-.35-.79-.79-.79h-37.47c-1.74,0-3.16,1.41-3.16,3.16v61.04c0,.44,.35,.79,.79,.79h5.2c.44,0,.79-.35,.79-.79v-23.33c0-.87,.71-1.58,1.58-1.58h27.86Z"/></g><g><path class="b" d="M553.17,215.34c-5.22-.74-12.83-1.43-12.83-7.03,0-4.16,5.06-7.22,11.04-7.22,5.05,0,9.39,1.78,12.12,3.88,.32,.24,.86,.15,1.07-.18l2.45-4.08c.16-.31,.17-.73-.15-1-3.79-3.22-9.92-4.93-15.51-4.93-11.73,0-17.78,7.01-17.78,13.77,0,7.87,7.02,11.19,15.45,12.64,6.05,1.04,13.75,2.16,13.75,7.67,0,4.53-5.57,7.38-12.18,7.38-6.71,0-11.44-2.92-13.73-4.53-.39-.27-.82-.21-1.1,.15l-2.71,4.01c-.16,.29-.15,.69,.16,.96,2.91,2.66,9.43,5.76,17.43,5.76,12.18,0,18.89-6.74,18.89-14.13,0-8.64-7.69-11.87-16.37-13.1Z"/><path class="b" d="M757.09,215.34c-5.22-.74-12.83-1.43-12.83-7.03,0-4.16,5.06-7.22,11.04-7.22,5.05,0,9.39,1.78,12.12,3.88,.32,.24,.86,.15,1.07-.18l2.45-4.08c.16-.31,.17-.73-.15-1-3.79-3.22-9.92-4.93-15.51-4.93-11.73,0-17.78,7.01-17.78,13.77,0,7.87,7.02,11.19,15.45,12.64,6.05,1.04,13.75,2.16,13.75,7.67,0,4.53-5.57,7.38-12.18,7.38-6.71,0-11.44-2.92-13.73-4.53-.39-.27-.82-.21-1.1,.15l-2.71,4.01c-.16,.29-.15,.69,.16,.96,2.91,2.66,9.43,5.76,17.43,5.76,12.18,0,18.89-6.74,18.89-14.13,0-8.64-7.69-11.87-16.37-13.1Z"/><path class="b" d="M665.84,194.94c-13.1,0-22.74,10.62-22.74,23.72s10,23.72,23.62,23.72c7.3,0,13.01-2.57,16.77-5.59,.33-.26,.41-.74,.16-1.09l-2.68-3.81c-.25-.35-.75-.43-1.1-.18-1.87,1.22-6.31,4.14-12.77,4.14-12.54,0-16.59-10.4-16.59-13.14,0-.44,.35-.79,.79-.79,0,0,31.68,0,33.57,0,1.62,0,3.13-1.18,3.22-3.09,.61-12.23-6.84-23.91-22.25-23.91Zm13.81,21.09h-28.5c-.44,0-.79-.35-.79-.79,0-4.3,4.69-13.91,15.36-13.91,12.43,0,15.51,9.99,15.51,13.12,0,.87-.71,1.58-1.58,1.58Z"/><path class="b" d="M501.74,242.02c-9.42,0-16.4-6.42-16.4-19.06v-26.1c0-.44,.35-.79,.79-.79h5.2c.44,0,.79,.35,.79,.79v25.92c0,7.34,3.96,13.13,12.35,13.13s12.74-6.31,12.74-13.13v-25.92c0-.44,.35-.79,.79-.79h5.2c.44,0,.79,.35,.79,.79v43.63c0,.44-.35,.79-.79,.79h-4.86c-.44,0-.79-.35-.79-.78v-6.57c0-.41-.34-.6-.6-.6-.28,0-.44,.2-.6,.47-2.81,4.81-6.93,8.22-14.59,8.22Z"/><path class="b" d="M618.16,195.32c9.42,0,16.4,6.42,16.4,19.06v26.1c0,.44-.35,.79-.79,.79h-5.2c-.44,0-.79-.35-.79-.79v-25.92c0-7.34-3.96-13.13-12.35-13.13-8.13,0-12.74,6.31-12.74,13.13v25.92c0,.44-.35,.79-.79,.79h-5.2c-.44,0-.79-.35-.79-.79v-43.63c0-.44,.35-.79,.79-.79h4.86c.44,0,.79,.35,.79,.78v6.57c0,.41,.34,.6,.6,.6,.28,0,.44-.2,.6-.47,2.81-4.81,6.93-8.22,14.59-8.22Z"/><path class="b" d="M467.17,207.87c4.09-3.26,6.73-8.19,6.73-13.78,0-9.82-7.97-17.79-18.09-17.79h-23.39c-1.74,0-3.16,1.41-3.16,3.16v58.67c0,1.75,1.41,3.16,3.16,3.16h26.2c10.13,0,18.09-7.97,18.09-17.8,0-6.78-3.85-12.61-9.53-15.61Zm-31.13-23.22c0-.87,.71-1.58,1.58-1.58h17.87c6.51,0,11.5,5,11.5,11.16s-5,11.16-11.5,11.16h-17.87c-.87,0-1.58-.71-1.58-1.58v-19.17Zm22.25,49.85h-20.67c-.87,0-1.58-.71-1.58-1.58v-19.17c0-.87,.71-1.58,1.58-1.58h20.67c6.51,0,11.5,5,11.5,11.16s-5,11.16-11.5,11.16Z"/><g><circle class="b" cx="582.2" cy="180.07" r="3.78"/><path class="b" d="M578.81,196.85c0-.44,.35-.79,.79-.79h5.2c.44,0,.77,.35,.77,.79v43.63c0,.44-.34,.79-.77,.79h-5.2c-.44,0-.79-.35-.79-.79v-43.63Z"/></g><path class="b" d="M715.02,215.34c-5.22-.74-12.83-1.43-12.83-7.03,0-4.16,5.06-7.22,11.04-7.22,5.05,0,9.39,1.78,12.12,3.88,.32,.24,.86,.15,1.07-.18l2.45-4.08c.16-.31,.17-.73-.15-1-3.79-3.22-9.92-4.93-15.51-4.93-11.73,0-17.78,7.01-17.78,13.77,0,7.87,7.02,11.19,15.45,12.64,6.05,1.04,13.75,2.16,13.75,7.67,0,4.53-5.57,7.38-12.18,7.38-6.71,0-11.44-2.92-13.73-4.53-.39-.27-.82-.21-1.1,.15l-2.71,4.01c-.16,.29-.15,.69,.16,.96,2.91,2.66,9.43,5.76,17.43,5.76,12.18,0,18.89-6.74,18.89-14.13,0-8.64-7.69-11.87-16.37-13.1Z"/></g></g></svg>